<mxfile host="app.diagrams.net" modified="2021-10-11T02:47:35.480Z" agent="5.0 (Macintosh; Intel Mac OS X 10_15_7) AppleWebKit/537.36 (KHTML, like Gecko) Chrome/94.0.4606.81 Safari/537.36" etag="Rkm95MFr8-Auqtz3BSC9" version="15.5.0" type="github">
  <diagram id="R2lEEEUBdFMjLlhIrx00" name="Page-1">
    <mxGraphModel dx="1186" dy="614" grid="1" gridSize="10" guides="1" tooltips="1" connect="1" arrows="1" fold="1" page="1" pageScale="1" pageWidth="850" pageHeight="1100" math="0" shadow="0" extFonts="Permanent Marker^https://fonts.googleapis.com/css?family=Permanent+Marker">
      <root>
        <mxCell id="0" />
        <mxCell id="1" parent="0" />
        <mxCell id="baubWvnDaUA_saS2QGwn-3" value="" style="shape=table;startSize=0;container=1;collapsible=0;childLayout=tableLayout;whiteSpace=wrap;" parent="1" vertex="1">
          <mxGeometry x="50" y="80" width="760" height="80" as="geometry" />
        </mxCell>
        <mxCell id="baubWvnDaUA_saS2QGwn-4" value="" style="shape=partialRectangle;collapsible=0;dropTarget=0;pointerEvents=0;fillColor=none;top=0;left=0;bottom=0;right=0;points=[[0,0.5],[1,0.5]];portConstraint=eastwest;" parent="baubWvnDaUA_saS2QGwn-3" vertex="1">
          <mxGeometry width="760" height="40" as="geometry" />
        </mxCell>
        <mxCell id="baubWvnDaUA_saS2QGwn-5" value="id" style="shape=partialRectangle;html=1;connectable=0;overflow=hidden;fillColor=none;top=0;left=0;bottom=0;right=0;pointerEvents=1;whiteSpace=wrap;" parent="baubWvnDaUA_saS2QGwn-4" vertex="1">
          <mxGeometry width="53" height="40" as="geometry">
            <mxRectangle width="53" height="40" as="alternateBounds" />
          </mxGeometry>
        </mxCell>
        <mxCell id="baubWvnDaUA_saS2QGwn-6" value="name" style="shape=partialRectangle;html=1;connectable=0;overflow=hidden;fillColor=none;top=0;left=0;bottom=0;right=0;pointerEvents=1;whiteSpace=wrap;" parent="baubWvnDaUA_saS2QGwn-4" vertex="1">
          <mxGeometry x="53" width="63" height="40" as="geometry">
            <mxRectangle width="63" height="40" as="alternateBounds" />
          </mxGeometry>
        </mxCell>
        <mxCell id="baubWvnDaUA_saS2QGwn-7" value="leave_date" style="shape=partialRectangle;html=1;connectable=0;overflow=hidden;fillColor=none;top=0;left=0;bottom=0;right=0;pointerEvents=1;whiteSpace=wrap;" parent="baubWvnDaUA_saS2QGwn-4" vertex="1">
          <mxGeometry x="116" width="95" height="40" as="geometry">
            <mxRectangle width="95" height="40" as="alternateBounds" />
          </mxGeometry>
        </mxCell>
        <mxCell id="baubWvnDaUA_saS2QGwn-8" value="performance_rating" style="shape=partialRectangle;html=1;connectable=0;overflow=hidden;fillColor=none;top=0;left=0;bottom=0;right=0;pointerEvents=1;whiteSpace=wrap;" parent="baubWvnDaUA_saS2QGwn-4" vertex="1">
          <mxGeometry x="211" width="127" height="40" as="geometry">
            <mxRectangle width="127" height="40" as="alternateBounds" />
          </mxGeometry>
        </mxCell>
        <mxCell id="baubWvnDaUA_saS2QGwn-9" value="performance_feedback" style="shape=partialRectangle;html=1;connectable=0;overflow=hidden;fillColor=none;top=0;left=0;bottom=0;right=0;pointerEvents=1;whiteSpace=wrap;" parent="baubWvnDaUA_saS2QGwn-4" vertex="1">
          <mxGeometry x="338" width="142" height="40" as="geometry">
            <mxRectangle width="142" height="40" as="alternateBounds" />
          </mxGeometry>
        </mxCell>
        <mxCell id="baubWvnDaUA_saS2QGwn-10" value="supervisor" style="shape=partialRectangle;html=1;connectable=0;overflow=hidden;fillColor=none;top=0;left=0;bottom=0;right=0;pointerEvents=1;whiteSpace=wrap;" parent="baubWvnDaUA_saS2QGwn-4" vertex="1">
          <mxGeometry x="480" width="69" height="40" as="geometry">
            <mxRectangle width="69" height="40" as="alternateBounds" />
          </mxGeometry>
        </mxCell>
        <mxCell id="baubWvnDaUA_saS2QGwn-11" value="salary" style="shape=partialRectangle;html=1;connectable=0;overflow=hidden;fillColor=none;top=0;left=0;bottom=0;right=0;pointerEvents=1;whiteSpace=wrap;" parent="baubWvnDaUA_saS2QGwn-4" vertex="1">
          <mxGeometry x="549" width="63" height="40" as="geometry">
            <mxRectangle width="63" height="40" as="alternateBounds" />
          </mxGeometry>
        </mxCell>
        <mxCell id="baubWvnDaUA_saS2QGwn-12" value="bonus" style="shape=partialRectangle;html=1;connectable=0;overflow=hidden;fillColor=none;top=0;left=0;bottom=0;right=0;pointerEvents=1;whiteSpace=wrap;" parent="baubWvnDaUA_saS2QGwn-4" vertex="1">
          <mxGeometry x="612" width="64" height="40" as="geometry">
            <mxRectangle width="64" height="40" as="alternateBounds" />
          </mxGeometry>
        </mxCell>
        <mxCell id="baubWvnDaUA_saS2QGwn-13" value="date_created" style="shape=partialRectangle;html=1;connectable=0;overflow=hidden;fillColor=none;top=0;left=0;bottom=0;right=0;pointerEvents=1;whiteSpace=wrap;" parent="baubWvnDaUA_saS2QGwn-4" vertex="1">
          <mxGeometry x="676" width="84" height="40" as="geometry">
            <mxRectangle width="84" height="40" as="alternateBounds" />
          </mxGeometry>
        </mxCell>
        <mxCell id="baubWvnDaUA_saS2QGwn-14" value="" style="shape=partialRectangle;collapsible=0;dropTarget=0;pointerEvents=0;fillColor=none;top=0;left=0;bottom=0;right=0;points=[[0,0.5],[1,0.5]];portConstraint=eastwest;" parent="baubWvnDaUA_saS2QGwn-3" vertex="1">
          <mxGeometry y="40" width="760" height="40" as="geometry" />
        </mxCell>
        <mxCell id="baubWvnDaUA_saS2QGwn-15" value="" style="shape=partialRectangle;html=1;whiteSpace=wrap;connectable=0;overflow=hidden;fillColor=none;top=0;left=0;bottom=0;right=0;pointerEvents=1;" parent="baubWvnDaUA_saS2QGwn-14" vertex="1">
          <mxGeometry width="53" height="40" as="geometry">
            <mxRectangle width="53" height="40" as="alternateBounds" />
          </mxGeometry>
        </mxCell>
        <mxCell id="baubWvnDaUA_saS2QGwn-16" value="" style="shape=partialRectangle;html=1;whiteSpace=wrap;connectable=0;overflow=hidden;fillColor=none;top=0;left=0;bottom=0;right=0;pointerEvents=1;" parent="baubWvnDaUA_saS2QGwn-14" vertex="1">
          <mxGeometry x="53" width="63" height="40" as="geometry">
            <mxRectangle width="63" height="40" as="alternateBounds" />
          </mxGeometry>
        </mxCell>
        <mxCell id="baubWvnDaUA_saS2QGwn-17" value="" style="shape=partialRectangle;html=1;whiteSpace=wrap;connectable=0;overflow=hidden;fillColor=none;top=0;left=0;bottom=0;right=0;pointerEvents=1;" parent="baubWvnDaUA_saS2QGwn-14" vertex="1">
          <mxGeometry x="116" width="95" height="40" as="geometry">
            <mxRectangle width="95" height="40" as="alternateBounds" />
          </mxGeometry>
        </mxCell>
        <mxCell id="baubWvnDaUA_saS2QGwn-18" value="" style="shape=partialRectangle;html=1;whiteSpace=wrap;connectable=0;overflow=hidden;fillColor=none;top=0;left=0;bottom=0;right=0;pointerEvents=1;" parent="baubWvnDaUA_saS2QGwn-14" vertex="1">
          <mxGeometry x="211" width="127" height="40" as="geometry">
            <mxRectangle width="127" height="40" as="alternateBounds" />
          </mxGeometry>
        </mxCell>
        <mxCell id="baubWvnDaUA_saS2QGwn-19" value="" style="shape=partialRectangle;html=1;whiteSpace=wrap;connectable=0;overflow=hidden;fillColor=none;top=0;left=0;bottom=0;right=0;pointerEvents=1;" parent="baubWvnDaUA_saS2QGwn-14" vertex="1">
          <mxGeometry x="338" width="142" height="40" as="geometry">
            <mxRectangle width="142" height="40" as="alternateBounds" />
          </mxGeometry>
        </mxCell>
        <mxCell id="baubWvnDaUA_saS2QGwn-20" value="" style="shape=partialRectangle;html=1;whiteSpace=wrap;connectable=0;overflow=hidden;fillColor=none;top=0;left=0;bottom=0;right=0;pointerEvents=1;" parent="baubWvnDaUA_saS2QGwn-14" vertex="1">
          <mxGeometry x="480" width="69" height="40" as="geometry">
            <mxRectangle width="69" height="40" as="alternateBounds" />
          </mxGeometry>
        </mxCell>
        <mxCell id="baubWvnDaUA_saS2QGwn-21" value="" style="shape=partialRectangle;html=1;whiteSpace=wrap;connectable=0;overflow=hidden;fillColor=none;top=0;left=0;bottom=0;right=0;pointerEvents=1;" parent="baubWvnDaUA_saS2QGwn-14" vertex="1">
          <mxGeometry x="549" width="63" height="40" as="geometry">
            <mxRectangle width="63" height="40" as="alternateBounds" />
          </mxGeometry>
        </mxCell>
        <mxCell id="baubWvnDaUA_saS2QGwn-22" value="" style="shape=partialRectangle;html=1;whiteSpace=wrap;connectable=0;overflow=hidden;fillColor=none;top=0;left=0;bottom=0;right=0;pointerEvents=1;" parent="baubWvnDaUA_saS2QGwn-14" vertex="1">
          <mxGeometry x="612" width="64" height="40" as="geometry">
            <mxRectangle width="64" height="40" as="alternateBounds" />
          </mxGeometry>
        </mxCell>
        <mxCell id="baubWvnDaUA_saS2QGwn-23" value="" style="shape=partialRectangle;html=1;whiteSpace=wrap;connectable=0;overflow=hidden;fillColor=none;top=0;left=0;bottom=0;right=0;pointerEvents=1;" parent="baubWvnDaUA_saS2QGwn-14" vertex="1">
          <mxGeometry x="676" width="84" height="40" as="geometry">
            <mxRectangle width="84" height="40" as="alternateBounds" />
          </mxGeometry>
        </mxCell>
        <mxCell id="EJDwZ4C25BI0kBvDgZgt-1" value="" style="shape=table;startSize=0;container=1;collapsible=0;childLayout=tableLayout;html=0;" vertex="1" parent="1">
          <mxGeometry x="70" y="220" width="120" height="80" as="geometry" />
        </mxCell>
        <mxCell id="EJDwZ4C25BI0kBvDgZgt-2" value="" style="shape=partialRectangle;collapsible=0;dropTarget=0;pointerEvents=0;fillColor=none;top=0;left=0;bottom=0;right=0;points=[[0,0.5],[1,0.5]];portConstraint=eastwest;html=0;" vertex="1" parent="EJDwZ4C25BI0kBvDgZgt-1">
          <mxGeometry width="120" height="40" as="geometry" />
        </mxCell>
        <mxCell id="EJDwZ4C25BI0kBvDgZgt-3" value="" style="shape=partialRectangle;html=1;whiteSpace=wrap;connectable=0;overflow=hidden;fillColor=none;top=0;left=0;bottom=0;right=0;pointerEvents=1;" vertex="1" parent="EJDwZ4C25BI0kBvDgZgt-2">
          <mxGeometry width="60" height="40" as="geometry">
            <mxRectangle width="60" height="40" as="alternateBounds" />
          </mxGeometry>
        </mxCell>
        <mxCell id="EJDwZ4C25BI0kBvDgZgt-4" value="" style="shape=partialRectangle;html=1;whiteSpace=wrap;connectable=0;overflow=hidden;fillColor=none;top=0;left=0;bottom=0;right=0;pointerEvents=1;" vertex="1" parent="EJDwZ4C25BI0kBvDgZgt-2">
          <mxGeometry x="60" width="60" height="40" as="geometry">
            <mxRectangle width="60" height="40" as="alternateBounds" />
          </mxGeometry>
        </mxCell>
        <mxCell id="EJDwZ4C25BI0kBvDgZgt-5" value="" style="shape=partialRectangle;collapsible=0;dropTarget=0;pointerEvents=0;fillColor=none;top=0;left=0;bottom=0;right=0;points=[[0,0.5],[1,0.5]];portConstraint=eastwest;html=0;" vertex="1" parent="EJDwZ4C25BI0kBvDgZgt-1">
          <mxGeometry y="40" width="120" height="40" as="geometry" />
        </mxCell>
        <mxCell id="EJDwZ4C25BI0kBvDgZgt-6" value="" style="shape=partialRectangle;html=1;whiteSpace=wrap;connectable=0;overflow=hidden;fillColor=none;top=0;left=0;bottom=0;right=0;pointerEvents=1;" vertex="1" parent="EJDwZ4C25BI0kBvDgZgt-5">
          <mxGeometry width="60" height="40" as="geometry">
            <mxRectangle width="60" height="40" as="alternateBounds" />
          </mxGeometry>
        </mxCell>
        <mxCell id="EJDwZ4C25BI0kBvDgZgt-7" value="" style="shape=partialRectangle;html=1;whiteSpace=wrap;connectable=0;overflow=hidden;fillColor=none;top=0;left=0;bottom=0;right=0;pointerEvents=1;" vertex="1" parent="EJDwZ4C25BI0kBvDgZgt-5">
          <mxGeometry x="60" width="60" height="40" as="geometry">
            <mxRectangle width="60" height="40" as="alternateBounds" />
          </mxGeometry>
        </mxCell>
      </root>
    </mxGraphModel>
  </diagram>
</mxfile>
